<?xml version="1.0" standalone="no"?>
<!DOCTYPE svg PUBLIC "-//W3C//DTD SVG 20010904//EN"
 "http://www.w3.org/TR/2001/REC-SVG-20010904/DTD/svg10.dtd">
<svg version="1.0" xmlns="http://www.w3.org/2000/svg"
 width="32.000000pt" height="32.000000pt" viewBox="0 0 32.000000 32.000000"
 preserveAspectRatio="xMidYMid meet">

<g transform="translate(0.000000,32.000000) scale(0.100000,-0.100000)"
fill="#000000" stroke="none">
<path d="M20 289 c-14 -25 -13 -29 12 -29 21 0 21 0 -2 -20 -13 -11 -19 -20
-14 -20 5 0 18 -16 28 -35 14 -25 26 -35 43 -35 32 0 39 -25 19 -66 -22 -47
-8 -75 37 -73 29 2 30 2 5 6 -41 6 -52 26 -33 60 l16 28 -5 -27 c-5 -23 -1
-29 38 -47 29 -15 60 -21 95 -20 46 2 51 4 51 26 0 14 -6 23 -15 23 -9 0 -15
9 -15 25 0 14 5 24 11 22 18 -3 21 17 5 38 -12 17 -16 17 -30 6 -12 -10 -20
-11 -27 -4 -8 8 -2 19 18 39 31 32 53 74 53 104 0 16 -7 20 -38 20 -21 0 -44
-6 -50 -12 -10 -10 -15 -10 -21 1 -5 8 -11 9 -15 3 -3 -6 -1 -12 5 -14 8 -3 7
-13 -5 -35 -19 -38 -36 -51 -29 -23 3 11 -1 28 -8 37 -12 15 -12 16 9 11 12
-4 20 -2 16 3 -8 14 -50 10 -64 -6 -7 -8 -16 -12 -21 -9 -5 3 -9 -15 -9 -40 0
-50 1 -51 31 -35 11 6 25 8 32 6 10 -4 -51 -37 -69 -37 -3 0 -4 33 -3 73 4 69
3 72 -19 73 -13 1 -27 -7 -32 -17z m230 -4 c0 -8 -8 -15 -17 -16 -10 0 0 -6
22 -13 29 -9 36 -14 23 -18 -9 -4 -18 -3 -20 2 -2 5 -14 7 -26 3 -18 -4 -20
-8 -10 -14 9 -6 6 -9 -12 -10 -14 0 -19 -3 -12 -6 10 -4 9 -9 -5 -20 -10 -8
-1 -5 20 7 20 12 43 19 50 17 7 -3 4 -6 -6 -6 -10 -1 -16 -5 -12 -10 3 -5 -4
-12 -15 -16 -11 -4 -18 -11 -15 -16 4 -5 -8 -9 -24 -9 -41 0 -41 24 -1 84 26
37 37 49 58 55 1 1 2 -6 2 -14z m50 11 c0 -9 -30 -14 -35 -6 -4 6 3 10 14 10
12 0 21 -2 21 -4z m-255 -16 c3 -5 1 -10 -4 -10 -6 0 -11 5 -11 10 0 6 2 10 4
10 3 0 8 -4 11 -10z m101 -37 c-3 -8 -6 -20 -6 -26 0 -6 -7 -1 -16 11 -8 12
-13 26 -9 32 9 14 37 -1 31 -17z m-36 -24 c0 -5 -4 -9 -10 -9 -5 0 -10 7 -10
16 0 8 5 12 10 9 6 -3 10 -10 10 -16z m43 -81 c-2 -5 2 -8 10 -8 8 0 22 -9 32
-20 10 -11 25 -20 34 -19 11 0 12 2 3 6 -9 4 -10 8 -2 18 8 10 8 15 -1 21 -7
4 -9 3 -6 -3 12 -20 -18 -20 -37 -2 -19 19 -19 19 5 19 14 0 37 -6 52 -12 25
-12 27 -17 26 -68 -2 -54 -2 -54 -9 -15 l-7 40 -2 -37 c-1 -34 -4 -38 -27 -38
-38 0 -88 53 -80 85 4 17 2 25 -6 25 -9 0 -8 3 2 10 12 8 10 10 -10 10 -24 1
-24 1 -5 16 18 13 20 13 26 -3 4 -10 5 -21 2 -25z m137 -4 c0 -8 -4 -12 -10
-9 -5 3 -10 10 -10 16 0 5 5 9 10 9 6 0 10 -7 10 -16z m10 -94 c0 -5 -2 -10
-4 -10 -3 0 -8 5 -11 10 -3 6 -1 10 4 10 6 0 11 -4 11 -10z"/>
<path d="M155 110 c-4 -7 3 -21 16 -34 22 -20 22 -20 6 0 -27 33 -20 38 14 10
17 -14 36 -26 42 -26 7 0 3 6 -8 12 -11 6 -30 19 -41 30 -16 14 -24 16 -29 8z"/>
<path d="M208 43 c7 -3 16 -2 19 1 4 3 -2 6 -13 5 -11 0 -14 -3 -6 -6z"/>
<path d="M72 50 c0 -14 2 -19 5 -12 2 6 2 18 0 25 -3 6 -5 1 -5 -13z"/>
</g>
</svg>
